<svg xmlns="http://www.w3.org/2000/svg" width="256" height="256" viewBox="0 0 256 256" id="error-construction-large" data-supported-dps="256x256">
  <path d="M128 0a128 128 0 01128 128H0A128 128 0 01128 0z" fill="#e8f3ff"/>
  <path d="M46 174h133c9.4 0 14.62-15.6 8.74-22.93l-32.18-40.16a13.8 13.8 0 00-21.55 0l-9.48 11.84a31.53 31.53 0 01-24.59 11.9H74a26 26 0 00-24.12 19.15z" fill="#d6cec2"/>
  <path fill="#928c6f" d="M86.48 96.73l-11.37 1.88-7.78-11.15-.51-32.37 19.66 41.64z"/>
  <path fill="#74899f" d="M59.14 172.35l2.02-8.48L72 164l-2 6.54-10.86 1.81z"/>
  <path d="M30 104l-18 60h16a6.64 6.64 0 006.06-3.63L50 116.3a2.88 2.88 0 014.81 0l13.79 16.39L60 164h16a6.41 6.41 0 006.35-4.77l4.72-26.17c2.24-8.49-8.45-21.59-13.07-29.06H30z" fill="#54442b"/>
  <path d="M63.45 19.46c-8.16-3.26-17.11 4.8-14.91 13.2.42 1.75.86 3.39 1.11 4.69.72 3.72-1.86 7.64-4.29 10.14l14.86 4.09 1.21-7.14c3.93.05 5.06-.3 6.23-3.76.57-2 2-1.17 2.41-2.29.33-.94-.31-3.63.5-5.63a11.32 11.32 0 00-7.12-13.3z" fill="#de9885"/>
  <path d="M63.45 19.46c-5.86-2.14-13.25 1.15-15.39 7-1.57 3.62.87 7.6 1.58 10.93 3.43 1.67 7.16-1 7.13-5.27a2.72 2.72 0 014.91-1.6 3.76 3.76 0 005.36.82l1.44-1.14a4.4 4.4 0 002.08 2.55 11.32 11.32 0 00-7.11-13.29z" fill="#bf7461"/>
  <path d="M50.89 19.87l-2.07 3.64a1.18 1.18 0 01-1.24.73l-.76-.09-.24 1.2 29.08 9 .22-1.09-3.78-2.1V25.5a11.18 11.18 0 00-8.37-10.92 10.29 10.29 0 00-12.84 5.29z" fill="#f3ba64"/>
  <path d="M4 178h16v-10H10c-1.74 7.24-6 3.53-6 10zM82 178l-24.32-.32 2.34-9c5.68-.07 5.77 3.8 10.51.09C76.56 176 79.6 171.16 82 178z" fill="#0d2135"/>
  <path fill="#74899f" d="M22 164l-2 4-9.98.11L12 164h10z"/>
  <path d="M73.27 65.88a20.81 20.81 0 00-1.12-6c-2.37-6.78-6-8.36-8.76-9.23l-20.87-6C38.31 43.48 32.85 44.59 30 48v28h44zM30 90h44v14H30zM30 80h44v6H30z" fill="#f3ba64"/>
  <path fill="#fff" d="M32 86h42v4H32zM30 76h44v4H30z"/>
  <path d="M14.597 82.384l117.697 39.724-.985 2.918L13.612 85.302a1.56 1.56 0 01-.98-1.976 1.56 1.56 0 011.977-.98z" fill="#8f5849"/>
  <path d="M83.35 103.38a8.62 8.62 0 003.13 4.71c2.43 1.67 4.79.33 6.07.83l.92.46 1.12.58.28.87a1 1 0 001 .68 1 1 0 00.84-1.21l-.35-1.38a1.46 1.46 0 00-.59-.87l-4-2.93-5.39-8.36-9 1.43zM22.93 74l1.72 7.47a4.38 4.38 0 001.09 1.93 18.16 18.16 0 001.61 1.42c.47.39 1 .9.87 1.5a3.79 3.79 0 01-.53 1 1.81 1.81 0 00-.18 1.12c.14.85.53 1.7.73 2.54a4.07 4.07 0 01.12 2.1 1.39 1.39 0 01-1.62 1c-.44-.15-.77-.6-1.23-.6a2.61 2.61 0 00-.76.21 1.34 1.34 0 01-1.25-.34c-.37-.36-.53-.94-1-1.15s-1.09.1-1.5-.2c-.25-.17-.35-.49-.58-.69a2.55 2.55 0 00-.95-.37 2.08 2.08 0 01-1.36-1.8 25.12 25.12 0 00-1.27-6.91L15.39 76z" fill="#de9885"/>
  <path d="M36.53 45.1l-17.27 5.12a10.51 10.51 0 00-8.56 12.56L14 84l12.91-4-2.16-16.61 13.91-3.56a7.19 7.19 0 005.77-8.77c-.9-3.75-3.05-6.96-7.9-5.96z" fill="#928c6f"/>
  <path d="M115 106.69l-3.64 10.38v.17l-3.64 10.38c22.69 8 31.19-1 31.2-1s-1.8-12.3-23.92-19.93z" fill="#9db3c8"/>
  <path fill="#928c6f" d="M46.73 45.88l12.16 13.25 1.64-9.32-13.8-3.93z"/>
  <ellipse cx="138.67" cy="137.46" rx="16.89" ry="17.22" fill="#d6cec2"/>
  <path fill="#c4936f" d="M159.21 250h9.82l-21.1-93.63h-9.82l21.1 93.63z"/>
  <path d="M154.65 147.35s-4.4 3.2-4.94 4.66c-1 2.66-1.23 4.9-1.58 5.57l-8.13 1.48a23.72 23.72 0 00.84-3.64c-.2-.59-.73-1.31-1.4-1.12l10.4-9.9z" fill="#a96c3f"/>
  <rect x="139.1" y="157.91" width="3.94" height="2.19" rx="1.1" transform="rotate(83.02 141.066 159.015)" fill="#a96c3f"/>
  <rect x="141.39" y="157.62" width="3.51" height="2.19" rx="1.1" transform="rotate(89.45 143.147 158.714)" fill="#a96c3f"/>
  <rect x="143.8" y="156.77" width="2.84" height="2.19" rx="1.1" transform="rotate(89.45 145.226 157.865)" fill="#a96c3f"/>
  <rect x="145.67" y="156.06" width="2.61" height="2.19" rx="1.1" transform="rotate(93.89 146.975 157.146)" fill="#a96c3f"/>
  <path fill="#928c6f" d="M144.48 143.53l10.38 5.11 22.08-17.07 6.82-25.71-11.54-15.75-5.89 23.98-21.85 29.44z"/>
  <path d="M214 156c.64 5.13-2 16-2 16v42l-2 26h-14c-2.72 0-3.55-1.69-4.29-4.3-.06-.22-2.24-15.66-3-23.64-.6-6.32-.91-18.08-1.06-26.2a.35.35 0 00-.7 0c-1.09 16.33-2.43 44.05-4.48 49.42A7.36 7.36 0 01176 240h-14c-7.5.22-2.33-18.38-2.33-18.38L166 156z" fill="#54442b"/>
  <path fill="#928c6f" d="M200 240h6v2h-6z"/>
  <path d="M208 242l1.58 14h-27c0-9.12 13.31-2.73 13.43-16h4v2z" fill="#0d2135"/>
  <path fill="#928c6f" d="M170 240h6v2h-6z"/>
  <path d="M176 242l1.67 11.69a2 2 0 01-2 2.3H150c0-9.12 14-3.12 14-16h6v2z" fill="#0d2135"/>
  <path d="M189.89 44.54a13.69 13.69 0 00-13.66 13.12c-.33 2.83-1.69 4.3-1.69 5.6 0 1.1 1.15 1.17 1.6 2.25a2.89 2.89 0 01.17 1.34c-.08 3.67.09 4.4 2.71 5.45.83.36 1.78.58 2.6 1 3.5 2-5.56 10.67-5.56 10.67l24.75.65c-1.87-6.15-4.1-11.25-1.37-15.94.51-.86 1.17-1.92 1.89-3 5.99-8.68-.77-21.38-11.44-21.14z" fill="#a96c3f"/>
  <path d="M189.89 44.54A13.58 13.58 0 00179 49.91c.19.2 4.42 4.38 7.19.16l-1.85 9.5-.34 1.88a5.27 5.27 0 01-5.57 4.24l-2.3-.18a2.89 2.89 0 01.17 1.34c-.25 4.11.58 4.73 3.59 5.78.44.15 1.9.77 2.32.91a2.65 2.65 0 003.6-2.28s.8-10.77.79-10.78c.23-5 7.71-3.83 6.37 1-1.7 5.17 2.1 8.85 6.45 7.22 1.95-3.07 4.28-6.44 4.1-10.48a13.67 13.67 0 00-13.63-13.68z" fill="#42292d"/>
  <path d="M204.9 51.79l.26 5.05a1.44 1.44 0 001 1.46l.86.31-.42 1.39-36.29-6 .35-1.3 5.23-.24 3.1-6.1c2.62-4.88 7.52-8.49 14.93-7.28s10.89 6.84 10.98 12.71zM214 154h-48v-48c0-2.3.26-10.54.76-12.79s1.08-4.74 1.24-5.21c2-6 10-6 10-6h22s13.75 1.85 14 8z" fill="#f3ba64"/>
  <path fill="#928c6f" d="M200 82l-14 12-8-12h22z"/>
  <path fill="#fff" d="M215.4 138H166v-6h49.29l.11 6zM214.46 126H166v-6h48.36l.1 6z"/>
  <path fill="#c4936f" d="M244.18 248.42H254l-21.09-93.64h-9.83l21.1 93.64z"/>
  <path fill="#f3f2ef" d="M112 154.08V174h5.88l9.75-19.92H112zM147.56 154.08L137.81 174h19.93l9.75-19.92h-19.93z"/>
  <path fill="#ef6461" d="M127.63 154.08L117.88 174h19.93l9.75-19.92h-19.93zM207.35 154.08L197.6 174h19.93l9.75-19.92h-19.93z"/>
  <path fill="#f3f2ef" d="M187.42 154.08L177.67 174h19.93l9.75-19.92h-19.93zM227.08 154.08L217.33 174h19.93l9.75-19.92h-19.93z"/>
  <path fill="#ef6461" d="M167.49 154.08L157.74 174h19.93l9.75-19.92h-19.93zM246.79 154.08L237.04 174h16.85v-19.92h-7.1z"/>
  <path fill="#e8ae83" d="M125.72 256h-9.82l22.92-102h9.82l-22.92 102zM211.86 256h-9.82l22.92-102h9.82l-22.92 102z"/>
  <path d="M214 148h-8l-.58 2.38c-1.87 1.13-4.64 3-4.85 4l-.83 1.94a1 1 0 001.6 1l.88-1c.3-.34 1.86-.45 1.86-.45 2.94 1.86-1.5 6.49-1.94 8.51.48 3.32 3.29-1.29 3.51-1.77.64.24 1.74.47 2.26-.08.87.23 2.08.67 2.68-.29 4.91-1.04 3.61-11.88 3.41-14.24z" fill="#a96c3f"/>
  <path d="M213.92 90l5.7 18.72s2.63 8.25 1.54 13L216 148h-16l5.93-28.5-3-8.32c-1.92-5.18-2.53-9.73-1.92-13.38a8.83 8.83 0 015.45-7.19 7.07 7.07 0 012.86-.61z" fill="#928c6f"/>
  <path d="M147.69 151.6a8.4 8.4 0 01-3.72 4c-2.58 1.22-4.64-.42-5.94-.14l-1 .3-1.16.38-.39.79a.94.94 0 01-1.1.49.94.94 0 01-.62-1.29l.54-1.26a1.5 1.5 0 01.7-.75l4.25-2.19 6.84-7.67 7.43 3.68z" fill="#a96c3f"/>
</svg>
